<?xml version="1.0" encoding="UTF-8" standalone="no"?>
<!-- Created with Inkscape (http://www.inkscape.org/) -->

<svg
   xmlns:dc="http://purl.org/dc/elements/1.1/"
   xmlns:cc="http://creativecommons.org/ns#"
   xmlns:rdf="http://www.w3.org/1999/02/22-rdf-syntax-ns#"
   xmlns:svg="http://www.w3.org/2000/svg"
   xmlns="http://www.w3.org/2000/svg"
   xmlns:xlink="http://www.w3.org/1999/xlink"
   xmlns:sodipodi="http://sodipodi.sourceforge.net/DTD/sodipodi-0.dtd"
   xmlns:inkscape="http://www.inkscape.org/namespaces/inkscape"
   width="1052.3622"
   height="744.09448"
   id="svg5035"
   version="1.1"
   inkscape:version="0.48.0 r9654"
   sodipodi:docname="Novo documento 27">
  <defs
     id="defs5037">
    <radialGradient
       inkscape:collect="always"
       xlink:href="#linearGradient3083"
       id="radialGradient5209"
       gradientUnits="userSpaceOnUse"
       gradientTransform="matrix(1,0,0,1.034231,0,-10.016371)"
       cx="217.34978"
       cy="292.61118"
       fx="217.34978"
       fy="292.61118"
       r="75.814995" />
    <linearGradient
       id="linearGradient3083">
      <stop
         style="stop-color:#ffffff;stop-opacity:1;"
         offset="0"
         id="stop3085" />
      <stop
         style="stop-color:#c5c5c5;stop-opacity:1;"
         offset="1"
         id="stop3087" />
    </linearGradient>
    <radialGradient
       inkscape:collect="always"
       xlink:href="#linearGradient3083"
       id="radialGradient5211"
       gradientUnits="userSpaceOnUse"
       gradientTransform="matrix(1,0,0,1.034231,0,-10.016371)"
       cx="217.34978"
       cy="292.61118"
       fx="217.34978"
       fy="292.61118"
       r="75.814995" />
    <linearGradient
       id="linearGradient5015">
      <stop
         style="stop-color:#ffffff;stop-opacity:1;"
         offset="0"
         id="stop5017" />
      <stop
         style="stop-color:#c5c5c5;stop-opacity:1;"
         offset="1"
         id="stop5019" />
    </linearGradient>
  </defs>
  <sodipodi:namedview
     id="base"
     pagecolor="#ffffff"
     bordercolor="#666666"
     borderopacity="1.0"
     inkscape:pageopacity="0.0"
     inkscape:pageshadow="2"
     inkscape:zoom="0.35"
     inkscape:cx="350"
     inkscape:cy="520"
     inkscape:document-units="px"
     inkscape:current-layer="layer1"
     showgrid="false"
     inkscape:window-width="1920"
     inkscape:window-height="1030"
     inkscape:window-x="-8"
     inkscape:window-y="-8"
     inkscape:window-maximized="1" />
  <metadata
     id="metadata5040">
    <rdf:RDF>
      <cc:Work
         rdf:about="">
        <dc:format>image/svg+xml</dc:format>
        <dc:type
           rdf:resource="http://purl.org/dc/dcmitype/StillImage" />
        <dc:title></dc:title>
      </cc:Work>
    </rdf:RDF>
  </metadata>
  <g
     inkscape:label="Camada 1"
     inkscape:groupmode="layer"
     id="layer1"
     transform="translate(0,-308.26769)">
    <g
       transform="matrix(3.1332501,0,0,3.1332501,-1350.9996,-1534.1415)"
       id="g4985">
      <path
         inkscape:connector-curvature="0"
         id="path5384"
         d="m 605.08572,774.09835 c 0,0 11.63067,22.97058 25.29671,16.86447 13.66604,-6.1061 3.19844,-26.75054 3.19844,-26.75054 z"
         style="fill:#de8787;stroke:#000000;stroke-width:2;stroke-linecap:butt;stroke-linejoin:miter;stroke-miterlimit:4;stroke-opacity:1;stroke-dasharray:none" />
      <path
         style="fill:#000000;stroke:none"
         d="m 597.94239,613.84002 c 0,0 6.32888,22.63046 7.6474,31.59075 1.31853,8.96029 7.38371,27.68499 -5.66962,28.37424 -13.05333,0.68925 -7.12,-19.41395 -7.25185,-29.06349 -0.13185,-9.64954 5.27407,-30.9015 5.27407,-30.9015 z"
         id="path5185"
         inkscape:connector-curvature="0"
         sodipodi:nodetypes="czzzc" />
      <path
         style="fill:#000000;stroke:none"
         d="m 538.55718,620.49108 c 0,0 24.55977,7.02697 33.65852,19.41396 9.09875,12.38698 19.4893,33.73788 4.70989,36.5304 -14.7794,2.79251 -8.27103,-20.44783 -15.04868,-32.39489 -5.45165,-9.60968 -23.31973,-23.54947 -23.31973,-23.54947 z"
         id="path5187"
         inkscape:connector-curvature="0"
         sodipodi:nodetypes="czzsc" />
      <path
         style="fill:#000000;stroke:none"
         d="m 486.8476,648.28704 c 0,0 29.9825,-5.28427 46.17994,1.83801 16.19744,7.12228 38.13866,29.9825 24.46847,38.02378 -13.67018,8.04128 -17.69081,-19.41396 -31.36099,-27.91474 -13.67019,-8.50079 -39.28742,-11.94705 -39.28742,-11.94705 z"
         id="path5189"
         inkscape:connector-curvature="0"
         sodipodi:nodetypes="czszc" />
      <path
         style="fill:#000000;stroke:none"
         d="m 474.78568,697.16932 c 0,0 22.17097,-15.27843 41.81467,-11.83217 19.6437,3.44627 36.9899,16.42719 28.48912,26.53623 -8.50079,10.10904 -16.79235,-10.82087 -34.46265,-16.88669 -17.67028,-6.06582 -23.89409,1.45509 -35.84114,2.18263 z"
         id="path5191"
         inkscape:connector-curvature="0"
         sodipodi:nodetypes="czzzc" />
      <path
         d="m 290.66477,292.61118 c 0,41.92405 -32.82424,75.91021 -73.31499,75.91021 -40.49076,0 -73.315,-33.98616 -73.315,-75.91021 0,-41.92406 32.82424,-75.91022 73.315,-75.91022 40.49075,0 73.31499,33.98616 73.31499,75.91022 z"
         sodipodi:ry="75.910217"
         sodipodi:rx="73.314995"
         sodipodi:cy="292.61118"
         sodipodi:cx="217.34978"
         id="path5193"
         style="fill:url(#radialGradient5209);stroke:#000000;stroke-width:5;stroke-miterlimit:4;stroke-opacity:1;stroke-dasharray:none"
         sodipodi:type="arc"
         transform="matrix(0.26466205,0,0,0.28900027,568.73581,640.00809)" />
      <path
         transform="matrix(0.26466205,0,0,0.28900027,592.26064,588.25673)"
         d="m 171.2846,498.28247 c 0,23.64947 -19.17168,42.82115 -42.82114,42.82115 -23.64947,0 -42.821153,-19.17168 -42.821153,-42.82115 0,-23.64947 19.171683,-42.82115 42.821153,-42.82115 23.64946,0 42.82114,19.17168 42.82114,42.82115 z"
         sodipodi:ry="42.821148"
         sodipodi:rx="42.821148"
         sodipodi:cy="498.28247"
         sodipodi:cx="128.46346"
         id="path5195"
         style="fill:#000000;stroke:none"
         sodipodi:type="arc" />
      <path
         transform="matrix(0.26466205,0,0,0.28900027,516.18259,640.00809)"
         sodipodi:type="arc"
         style="fill:url(#radialGradient5211);stroke:#000000;stroke-width:5;stroke-miterlimit:4;stroke-opacity:1;stroke-dasharray:none"
         id="path5197"
         sodipodi:cx="217.34978"
         sodipodi:cy="292.61118"
         sodipodi:rx="73.314995"
         sodipodi:ry="75.910217"
         d="m 290.66477,292.61118 c 0,41.92405 -32.82424,75.91021 -73.31499,75.91021 -40.49076,0 -73.315,-33.98616 -73.315,-75.91021 0,-41.92406 32.82424,-75.91022 73.315,-75.91022 40.49075,0 73.31499,33.98616 73.31499,75.91022 z" />
      <path
         sodipodi:type="arc"
         style="fill:#000000;stroke:none"
         id="path5199"
         sodipodi:cx="128.46346"
         sodipodi:cy="498.28247"
         sodipodi:rx="42.821148"
         sodipodi:ry="42.821148"
         d="m 171.2846,498.28247 c 0,23.64947 -19.17168,42.82115 -42.82114,42.82115 -23.64947,0 -42.821153,-19.17168 -42.821153,-42.82115 0,-23.64947 19.171683,-42.82115 42.821153,-42.82115 23.64946,0 42.82114,19.17168 42.82114,42.82115 z"
         transform="matrix(0.26466205,0,0,0.28900027,539.70743,588.25673)" />
      <path
         style="fill:#000000;stroke:none"
         d="m 663.15092,624.15822 c 0,0 -24.55976,7.02697 -33.65851,19.41396 -9.09875,12.38698 -19.4893,33.73788 -4.7099,36.5304 14.77941,2.79251 8.27104,-20.44783 15.04869,-32.39489 5.45165,-9.60968 23.31972,-23.54947 23.31972,-23.54947 z"
         id="path5203"
         inkscape:connector-curvature="0"
         sodipodi:nodetypes="czzsc" />
      <path
         style="fill:#000000;stroke:none"
         d="m 715.7717,650.13179 c 0,0 -29.9825,-5.28427 -46.17994,1.83801 -16.19744,7.12228 -38.13866,29.9825 -24.46847,38.02378 13.67018,8.04128 17.69082,-19.41396 31.361,-27.91474 13.67018,-8.50079 39.28741,-11.94705 39.28741,-11.94705 z"
         id="path5205"
         inkscape:connector-curvature="0"
         sodipodi:nodetypes="czszc" />
      <path
         style="fill:#000000;stroke:none"
         d="m 730.11161,696.73608 c 0,0 -22.17097,-15.27843 -41.81467,-11.83217 -19.64371,3.44627 -36.9899,16.42719 -28.48912,26.53623 8.50079,10.10904 16.79235,-10.82087 34.46264,-16.88669 17.67029,-6.06582 23.8941,1.45509 35.84115,2.18263 z"
         id="path5207"
         inkscape:connector-curvature="0"
         sodipodi:nodetypes="czzzc" />
      <path
         inkscape:connector-curvature="0"
         id="path5366"
         d="m 553.33638,761.87516 c 0,0 23.35699,12.97611 42.17235,12.97611 18.81535,0 42.82115,-12.3273 42.82115,-12.3273"
         style="fill:none;stroke:#000000;stroke-width:5;stroke-linecap:round;stroke-linejoin:miter;stroke-miterlimit:4;stroke-opacity:1;stroke-dasharray:none" />
    </g>
  </g>
</svg>
